<svg width="24" height="24" viewBox="0 0 24 24" fill="none" xmlns="http://www.w3.org/2000/svg">
<path d="M8.87501 2.9001L17.3 11.3001C17.4 11.4001 17.4707 11.5084 17.512 11.6251C17.554 11.7418 17.575 11.8668 17.575 12.0001C17.575 12.1334 17.554 12.2584 17.512 12.3751C17.4707 12.4918 17.4 12.6001 17.3 12.7001L8.87501 21.1251C8.64168 21.3584 8.35001 21.4751 8.00001 21.4751C7.65001 21.4751 7.35001 21.3501 7.10001 21.1001C6.85001 20.8501 6.72501 20.5584 6.72501 20.2251C6.72501 19.8918 6.85001 19.6001 7.10001 19.3501L14.45 12.0001L7.10001 4.6501C6.86668 4.41676 6.75001 4.12943 6.75001 3.7881C6.75001 3.4461 6.87501 3.1501 7.12501 2.9001C7.37501 2.6501 7.66668 2.5251 8.00001 2.5251C8.33335 2.5251 8.62501 2.6501 8.87501 2.9001Z" fill="#0A313E"/>
</svg>
