<svg width="24" height="24" viewBox="0 0 32 33" fill="none" xmlns="http://www.w3.org/2000/svg">
<path d="M32 14.7825V30.1991C31.9988 30.6804 31.8682 31.1525 31.6219 31.5659C31.3756 31.9794 31.0226 32.319 30.6 32.5491C30.2124 32.7628 29.7759 32.8719 29.3333 32.8658H21.3333C20.9797 32.8658 20.6406 32.7253 20.3905 32.4753C20.1405 32.2252 20 31.8861 20 31.5325V23.5325C20 23.1788 19.8595 22.8397 19.6095 22.5897C19.3594 22.3396 19.0203 22.1991 18.6667 22.1991H13.3334C12.9797 22.1991 12.6406 22.3396 12.3905 22.5897C12.1405 22.8397 12 23.1788 12 23.5325V31.5325C12 31.8861 11.8595 32.2252 11.6095 32.4753C11.3594 32.7253 11.0203 32.8658 10.6667 32.8658H2.6667C2.28841 32.8672 1.9142 32.7876 1.56922 32.6324C1.22425 32.4772 0.916512 32.2499 0.666699 31.9658C0.233192 31.4536 -0.00321838 30.8035 3.30978e-05 30.1325V14.7825C0.000150674 14.4125 0.0772641 14.0465 0.226469 13.708C0.375675 13.3694 0.593707 13.0656 0.866699 12.8158L14.2 0.699152C14.6916 0.249418 15.3337 0 16 0C16.6663 0 17.3084 0.249418 17.8 0.699152L31.1333 12.8158C31.4063 13.0656 31.6244 13.3694 31.7736 13.708C31.9228 14.0465 31.9999 14.4125 32 14.7825Z" fill="#0A313E"/>
</svg>
