<svg width="24" height="47" viewBox="0 0 32 55" fill="none" xmlns="http://www.w3.org/2000/svg">
<path d="M25.8462 0H6.15385C4.52174 0 2.95649 0.64835 1.80242 1.80242C0.64835 2.95649 0 4.52174 0 6.15385V48C0 49.6321 0.64835 51.1974 1.80242 52.3514C2.95649 53.5055 4.52174 54.1538 6.15385 54.1538H25.8462C27.4783 54.1538 29.0435 53.5055 30.1976 52.3514C31.3517 51.1974 32 49.6321 32 48V6.15385C32 4.52174 31.3517 2.95649 30.1976 1.80242C29.0435 0.64835 27.4783 0 25.8462 0V0ZM16 51.6923C13.9569 51.6923 12.3077 50.0431 12.3077 48C12.3077 45.9569 13.9569 44.3077 16 44.3077C18.0431 44.3077 19.6923 45.9569 19.6923 48C19.6923 50.0431 18.0431 51.6923 16 51.6923ZM27.0769 41.8462H4.92308V7.38462H27.0769V41.8462Z" fill="#0A313E"/>
</svg>
