<svg width="10" height="16" viewBox="0 0 10 16" fill="none" xmlns="http://www.w3.org/2000/svg">
<path d="M3.66665 13.3334H6.33331V12.6667H3.66665V13.3334ZM1.66665 15.3334C1.29998 15.3334 0.986202 15.203 0.725313 14.9421C0.46398 14.6807 0.333313 14.3667 0.333313 14.0001V2.00008C0.333313 1.63341 0.46398 1.31941 0.725313 1.05808C0.986202 0.797192 1.29998 0.666748 1.66665 0.666748H8.33331C8.69998 0.666748 9.01398 0.797192 9.27531 1.05808C9.5362 1.31941 9.66665 1.63341 9.66665 2.00008V14.0001C9.66665 14.3667 9.5362 14.6807 9.27531 14.9421C9.01398 15.203 8.69998 15.3334 8.33331 15.3334H1.66665ZM1.66665 10.6667H8.33331V4.00008H1.66665V10.6667Z" fill="#0A313E"/>
</svg>
